<svg version="1.1" xmlns="http://www.w3.org/2000/svg" xmlns:xlink="http://www.w3.org/1999/xlink" width="1042.000000pt" height="270.000000pt" viewBox="0,0,256,66.32813"><g fill="#2994f2" fill-rule="nonzero" stroke="none" stroke-width="1" stroke-linecap="butt" stroke-linejoin="miter" stroke-miterlimit="10" stroke-dasharray="" stroke-dashoffset="0" font-family="none" font-weight="none" font-size="none" text-anchor="none" style="mix-blend-mode: normal"><g transform="translate(0.36385,0.01407) scale(0.24568,0.24568)"><g transform="translate(0,270) scale(0.1,-0.1)"><path d="M7190,2653c-362,-25 -748,-90 -1255,-212c-137,-33 -319,-74 -403,-91c-187,-37 -271,-69 -329,-125c-41,-39 -43,-45 -43,-97c0,-72 23,-101 95,-124l55,-18l197,57c256,73 442,121 447,116c6,-6 35,-479 46,-739c5,-124 10,-424 10,-667v-442l44,-6c54,-8 121,2 158,23c53,31 60,72 59,332c-3,500 -30,1280 -51,1455c-6,44 -10,84 -10,91c0,21 368,116 686,178c119,23 365,58 371,52c1,-1 -9,-33 -23,-71c-14,-39 -41,-140 -59,-226c-72,-337 -198,-750 -416,-1371c-196,-556 -210,-600 -200,-631c23,-67 94,-104 186,-94c60,6 88,21 107,55c7,14 60,167 118,341l105,316l50,38c67,51 260,144 427,206c75,28 139,51 141,51c3,0 23,-27 45,-60c46,-68 97,-195 172,-422c59,-181 99,-248 170,-286c51,-27 115,-26 184,3l39,16l-7,67c-9,88 -47,197 -103,302c-119,219 -144,269 -163,329c-11,35 -20,86 -20,114c0,49 2,53 65,118c71,74 89,107 100,187l7,52h-74c-49,0 -95,-8 -140,-23l-66,-23l-22,95c-73,321 -223,913 -240,950c-48,101 -109,148 -181,138c-38,-5 -39,-4 -39,24v29l-97,-2c-54,-1 -118,-3 -143,-5zM7509,2034c33,-100 70,-242 137,-524l44,-185l-27,-22c-34,-28 -140,-80 -223,-109c-80,-27 -231,-67 -237,-61c-3,4 221,941 244,1021c5,18 6,18 19,-5c7,-13 27,-65 43,-115z"></path><path d="M9854,2571c-17,-4 -36,-11 -42,-15c-27,-17 -148,-361 -311,-891c-136,-438 -217,-627 -315,-732l-54,-58l-47,24c-100,52 -195,197 -259,393c-38,117 -70,257 -115,518c-51,293 -84,396 -144,446c-26,22 -36,24 -71,18c-52,-8 -73,-19 -86,-45c-16,-29 16,-1794 33,-1829c13,-27 68,-67 104,-76c65,-17 134,25 152,92c6,23 11,135 11,267c0,125 3,227 8,227c4,0 18,-21 31,-46c14,-25 53,-76 88,-114c85,-92 163,-132 271,-138c118,-7 197,34 279,142c77,102 135,242 297,721c86,253 160,469 165,480c6,15 16,-13 39,-110c47,-194 90,-445 162,-945c67,-461 115,-604 198,-585c63,13 101,89 109,220c4,64 -3,128 -37,325c-62,373 -177,1031 -216,1250c-19,107 -40,231 -45,275c-21,167 -76,216 -205,186z"></path><path d="M4465,2533c-99,-21 -207,-65 -311,-126c-116,-68 -292,-239 -354,-345l-43,-73l12,-262c7,-144 23,-462 36,-707c14,-245 25,-482 25,-528c0,-74 3,-87 26,-118c25,-32 30,-34 83,-34c74,0 121,24 145,74c19,39 19,45 3,260c-27,356 -30,416 -23,416c23,0 221,-82 329,-137c203,-103 316,-182 602,-421c109,-91 254,-192 276,-192c22,0 71,36 85,62c64,114 -125,316 -601,644c-71,49 -149,102 -172,117c-24,15 -43,31 -42,35c1,4 47,48 102,98c184,165 308,341 369,524c28,85 31,108 32,220c1,178 -32,289 -114,383c-95,108 -276,151 -465,110zM4694,2260c48,-18 115,-74 116,-98c1,-4 5,-27 10,-52c11,-58 -3,-170 -30,-243c-55,-147 -205,-317 -383,-434c-116,-77 -334,-189 -345,-178c-4,3 -8,154 -10,333l-3,327l71,80c210,238 404,328 574,265z"></path><path d="M2585,2510c-261,-55 -515,-334 -629,-690c-43,-131 -59,-222 -51,-276c7,-52 49,-117 96,-148c38,-26 118,-56 149,-56c10,0 21,-4 24,-9c3,-5 -24,-48 -60,-97c-83,-113 -146,-220 -181,-309c-24,-62 -27,-84 -27,-185c-1,-143 17,-192 103,-273c113,-108 258,-158 461,-161c117,-1 131,1 218,32c269,93 622,321 795,512c114,126 187,259 187,340v30h-67h-68l-175,-173c-190,-187 -305,-276 -463,-358c-179,-93 -318,-126 -478,-116c-146,9 -215,56 -239,161c-34,153 67,331 285,501c44,34 153,110 243,169c214,141 275,193 297,250c22,56 14,104 -21,137c-23,22 -34,24 -117,24c-105,0 -123,-8 -287,-115c-166,-110 -212,-130 -290,-130c-57,0 -73,4 -95,23c-93,79 23,385 217,574c80,78 127,103 195,103c43,0 59,-5 95,-33c24,-18 52,-49 63,-70c24,-44 55,-48 122,-18c75,34 93,108 47,198c-63,127 -206,194 -349,163z"></path><path d="M515,2489c-92,-13 -232,-56 -298,-91c-81,-44 -150,-112 -172,-171c-25,-67 -14,-98 43,-115c38,-13 49,-12 108,6c46,14 66,17 69,9c2,-7 6,-77 9,-157c3,-80 21,-354 40,-610c33,-431 56,-846 56,-999v-64l68,6c510,48 1108,573 1297,1141c77,228 66,387 -38,589c-46,91 -157,215 -251,282c-76,54 -209,119 -296,145c-114,34 -485,51 -635,29zM936,2275c217,-38 376,-115 492,-239c88,-95 116,-157 120,-277c5,-125 -19,-223 -93,-377c-148,-308 -408,-613 -645,-757c-54,-33 -190,-89 -197,-81c-18,17 -59,795 -79,1482l-7,232l54,11c30,6 63,13 74,15c50,10 200,5 281,-9z"></path></g></g></g></svg>